<svg height="75" viewBox="0 0 75 75" width="75" xmlns="http://www.w3.org/2000/svg"><path d="M22.093 31.824c-1.26-1.262-3.305-1.262-4.564 0L15.45 33.9l-.002-.002-4.566 4.564c-1.26 1.262-3.305 1.264-4.564 0l5.574 5.576c1.26 1.262 3.305 1.26 4.564-.002l2.074-2.074h.002l4.566-4.566c1.26-1.26 3.305-1.26 4.566.002l-5.573-5.574z" fill="#F26606"/><path d="M31.913 26.585c-1.262-1.26-3.305-1.26-4.566.002L25.27 28.66l-3.17 3.172 5.567 5.566 5.254-5.236c1.26-1.262 3.306-1.262 4.565-.002l-5.572-5.575z" fill="#1BC1A9"/><path d="M34.837 29.51l-2.924-2.925c-1.262-1.26-3.305-1.26-4.566.002l-1.877 1.877c.506.652 1.057 1.3 1.674 1.916 1.36 1.36 2.832 2.44 4.305 3.248l1.472-1.467c.764-.765 1.816-1.058 2.81-.895-.256-.582-.55-1.17-.895-1.754z" fill="#0CAFAF"/><path d="M52.907 31.824c1.26-1.262 3.303-1.262 4.564-.002l2.077 2.078.002-.002 4.565 4.564c1.26 1.262 3.305 1.262 4.564 0l-5.575 5.574c-1.26 1.262-3.305 1.262-4.564 0l.675.678-7.316-7.316c-1.263-1.262-3.308-1.262-4.567 0l5.574-5.574z" fill="#F26606"/><path d="M43.09 26.587c1.26-1.262 3.304-1.262 4.563-.002l2.076 2.076 3.17 3.17-5.567 5.567-5.254-5.238c-1.263-1.26-3.306-1.26-4.565 0l5.574-5.573z" fill="#1BC1A9"/><path d="M40.163 29.51l2.926-2.923c1.26-1.262 3.304-1.262 4.563-.002l1.877 1.88c-.508.653-1.057 1.298-1.674 1.915-1.36 1.36-2.832 2.44-4.305 3.248l-1.472-1.47c-.766-.763-1.816-1.058-2.81-.894.256-.58.55-1.167.895-1.755z" fill="#0CAFAF"/><path d="M35.45 15.602c-4.63-4.75-10.623-6.415-13.388-3.72-.96.938-1.395 2.284-1.37 3.834 2.906.12 6.503 1.89 9.522 4.99 3.02 3.097 4.702 6.738 4.747 9.647 1.55.062 2.906-.336 3.867-1.273 2.764-2.697 1.252-8.73-3.377-13.478z" fill="#EAB818"/><path d="M21.132 13.228c-.352.766-.527 1.64-.5 2.61 2.908.083 6.527 1.81 9.586 4.87 3.06 3.06 4.787 6.678 4.87 9.586.968.027 1.845-.15 2.608-.5 1.363-3.057-.365-8.096-4.418-12.148s-9.09-5.78-12.146-4.418z" fill="#ED9015"/><path d="M22.653 11.44c.078-.05.162-.097.244-.142-.082.045-.166.092-.244.14zM20.68 14.875c-.028.26-.042.527-.04.8-.002-.273.01-.54.04-.8zM20.987 13.542c.082-.215.176-.422.285-.62-.11.2-.203.406-.285.62zM21.415 12.68c.15-.235.318-.46.514-.66-.197.202-.365.425-.515.66zM20.7 14.662c.043-.314.113-.617.205-.906-.092.288-.16.59-.205.906zM23.52 11.013c.07-.025.138-.06.21-.082-.073.025-.14.058-.21.083zM40.27 25.113l-.015-.002c.004.056.006.112.006.167 0-.055.01-.108.01-.164zM25.813 10.67v-.013c-.057-.002-.107.008-.164.008.052 0 .11.002.163.004zM21.995 11.955l-.03.023c-.003.002-.003.004-.005.006.01-.01.023-.018.035-.03zM24.638 10.724c.07-.01.145-.012.215-.02-.07.008-.145.01-.215.02zM40.2 26.29c.012-.07.014-.146.02-.216-.006.07-.01.144-.02.215zM39.913 27.408c.025-.07.06-.14.082-.21-.023.07-.057.14-.082.21zM38.94 28.966c.004-.002.004-.004.006-.004.01-.01.016-.023.025-.033-.01.01-.018.025-.03.036zM39.487 28.27c.05-.077.096-.16.14-.24-.046.08-.09.163-.14.24zM38.905 28.996c-.2.197-.424.365-.658.516.234-.15.457-.32.658-.516zM37.17 30.02c-.288.09-.59.16-.905.206.314-.045.617-.115.906-.205zM35.25 30.287c.276.002.542-.014.8-.04-.258.026-.526.042-.8.04zM38.003 29.654c-.197.11-.404.203-.62.283.216-.08.423-.174.62-.283zM30.218 20.708c-3.055-3.057-6.668-4.783-9.574-4.867.088 2.905 1.814 6.517 4.87 9.573 3.054 3.055 6.667 4.78 9.57 4.87-.083-2.907-1.81-6.52-4.866-9.575z" fill="#F26606"/><path d="M23.93 16.54c.78 2.103 2.19 4.312 4.167 6.288 1.98 1.98 4.188 3.39 6.29 4.168-.782-2.102-2.19-4.31-4.17-6.287-1.976-1.98-4.185-3.39-6.286-4.17z" fill="#DB4D07"/><g><path d="M39.612 15.537c4.69-4.688 10.703-6.277 13.436-3.547.947.95 1.363 2.3 1.32 3.85-2.91.082-6.527 1.81-9.586 4.87-3.06 3.058-4.787 6.677-4.87 9.585-1.55.043-2.9-.375-3.847-1.322-2.73-2.73-1.144-8.745 3.547-13.436z" fill="#EAB818"/><path d="M53.868 13.228c.35.766.527 1.643.5 2.61-2.91.083-6.527 1.81-9.586 4.87-3.06 3.06-4.787 6.678-4.87 9.586-.968.027-1.845-.15-2.608-.5-1.365-3.057.365-8.096 4.418-12.148s9.09-5.78 12.146-4.418z" fill="#ED9015"/><path d="M52.347 11.44c-.08-.05-.162-.097-.244-.144.082.047.164.092.244.145zM54.32 14.876c.028.258.042.523.04.8.002-.274-.01-.542-.04-.8zM54.01 13.542c-.08-.215-.173-.422-.282-.62.11.2.203.406.283.62zM53.585 12.68c-.15-.237-.318-.46-.514-.66.195.202.365.423.515.66zM54.3 14.662c-.045-.314-.113-.617-.207-.906.094.286.162.59.207.906zM51.48 11.013c-.07-.027-.136-.06-.208-.082.073.025.14.056.21.083zM34.73 25.113l.013-.002c-.002.056-.002.112-.002.167 0-.055-.01-.108-.01-.164zM49.187 10.667v-.01c.057-.002.107.008.164.008l-.163.002zM53.005 11.955c.008.008.02.014.03.023 0 .002.003.006.005.006-.012-.01-.025-.018-.035-.03zM50.362 10.724c-.07-.01-.143-.014-.215-.02.073.006.145.01.215.02zM34.8 26.29c-.012-.07-.014-.146-.02-.218.006.072.01.146.02.217zM35.087 27.408c-.025-.07-.06-.14-.082-.213.023.074.057.142.082.213zM36.06 28.966l-.008-.006c-.008-.01-.014-.02-.02-.03.006.01.016.025.028.036zM35.515 28.27c-.053-.077-.098-.157-.145-.24.047.08.094.163.145.24zM36.095 28.996c.2.197.424.365.658.516-.234-.15-.457-.32-.658-.516zM37.83 30.02c.288.09.59.16.905.208-.316-.047-.617-.117-.906-.21zM39.75 30.287c-.276.002-.542-.014-.802-.04.26.026.526.042.8.04zM36.997 29.654c.195.11.404.205.62.283-.216-.078-.425-.174-.62-.283zM44.782 20.708c3.055-3.057 6.668-4.783 9.574-4.87-.086 2.907-1.814 6.52-4.87 9.575-3.054 3.055-6.667 4.78-9.573 4.867.086-2.904 1.813-6.517 4.87-9.572z" fill="#F26606"/><path d="M51.07 16.54c-.778 2.103-2.192 4.312-4.167 6.288-1.98 1.98-4.188 3.387-6.29 4.168.782-2.102 2.19-4.31 4.17-6.287 1.976-1.978 4.185-3.39 6.286-4.17z" fill="#DB4D07"/></g><path d="M41.48 28.183c0 2.2-1.784 3.98-3.98 3.98-2.198 0-3.978-1.78-3.978-3.978v-12.01c0-2.197 1.78-3.977 3.977-3.98 2.196 0 3.98 1.782 3.978 3.98v12.008z" fill="#EAB818"/><path d="M37.5 16.306c-2.198-.002-3.978 1.78-3.978 3.98v7.9c0 2.196 1.78 3.978 3.977 3.976 2.196 0 3.98-1.78 3.98-3.98l-.003-7.897c.002-2.2-1.78-3.98-3.978-3.98z" fill="#ED9015"/><g><path fill="#E83862" d="M11.056 23.246h52.887V34.21H11.056z"/><path fill="#BC2A54" d="M11.056 27.083h52.887v7.127H11.056z"/><path fill="#EAB818" d="M30.966 23.246h13.068V34.21H30.966z"/><path fill="#ED9015" d="M30.966 26.996h13.068v7.215H30.966z"/></g><g><path fill="#BC2A54" d="M16.16 34.21h42.68v30.197H16.16z"/><path fill="#AA1F4D" d="M16.16 34.21l42.68 30.198V34.21"/></g><g fill="#E83862"><circle cx="23.5" cy="40.705" r="2.151"/><circle cx="32.832" cy="40.705" r="2.151"/><circle cx="42.166" cy="40.705" r="2.151"/><circle cx="51.5" cy="40.705" r="2.151"/></g><g fill="#E83862"><circle cx="28.166" cy="48.591" r="2.151"/><circle cx="37.5" cy="48.591" r="2.151"/><circle cx="46.832" cy="48.591" r="2.151"/></g><g fill="#E83862"><circle cx="23.5" cy="56.48" r="2.151"/><circle cx="32.832" cy="56.48" r="2.151"/><circle cx="42.166" cy="56.48" r="2.151"/><circle cx="51.5" cy="56.48" r="2.151"/></g><path fill="#EAB818" d="M33.417 34.21h8.166v30.197h-8.166z"/><path fill="#F26606" d="M41.583 52.2V34.21h-8.166v12.21"/></svg>