<svg xmlns="http://www.w3.org/2000/svg" width="69.263" height="13.468" viewBox="0 0 18.32591 3.5633998"><g fill="#ffb610"><path d="M1.4 1.308L1.842 0l.423 1.315 1.4.013-1.138.803.42 1.317-1.126-.82-1.14.802.442-1.31L0 1.298z"/><path d="M5.064 1.337L5.51.03l.42 1.314 1.4.013-1.137.803.42 1.316-1.126-.82-1.14.802.442-1.31-1.125-.82zM8.73 1.367l.444-1.31.423 1.316 1.4.013-1.14.803.42 1.315-1.125-.82-1.14.802.443-1.31-1.125-.82z"/><path d="M12.394 1.396L12.84.088l.422 1.315 1.4.012-1.14.803.42 1.316-1.125-.82-1.14.802.443-1.31-1.124-.82z"/><path d="M16.06 1.425l.444-1.308.423 1.315 1.4.012-1.14.803.422 1.316-1.127-.818-1.14.8.442-1.31-1.124-.82z"/></g></svg>